<?xml version="1.0" encoding="utf-8"?>
<!-- Generator: Adobe Illustrator 16.0.0, SVG Export Plug-In . SVG Version: 6.00 Build 0)  -->
<!DOCTYPE svg PUBLIC "-//W3C//DTD SVG 1.1//EN" "http://www.w3.org/Graphics/SVG/1.1/DTD/svg11.dtd">
<svg version="1.1" id="Capa_1" xmlns="http://www.w3.org/2000/svg" xmlns:xlink="http://www.w3.org/1999/xlink" x="0px" y="0px"
	 width="176.9px" height="132px" viewBox="0 0 176.9 132" style="enable-background:new 0 0 176.9 132;" xml:space="preserve">
<path style="fill-rule:evenodd;clip-rule:evenodd;fill:#5ACBF2;" d="M131.9,15.6c-3-2.1-9.3-0.2-10.3,5.5c-0.8,4.2-3.3,3.9-6.2,3.6
	c-1.1-0.1-2.3-1-3.3-0.8c-5.1,0.6-8.1-0.7-8.3-6.6c-0.1-1.5-1.5-4.5-4.9-4.2c-3.7,1.1-4.2,3.4-3.7,5.5c0.2,1.1,0.9,2.8,1.7,4.9
	c-6.5-5.6-6.4-5.4-14.2-1.4c-2.7,1.4-5.9,1.9-9.2-0.7c-2.1-1.7-5.7-1.4-8.7-2c-1.9-0.3-4.1-0.1-5.7-0.9c-4.5-2.3-9.3-2.3-12.5,0.9
	c-3.6,3.5-4.5,7.9-1.9,12.3c1.9,3.2,0.7,5.5-1.8,6.5c-3.2,1.3-2.6-2-3.5-3.8c-0.9-1.7-2.6-3.7-4.3-4.1c-1.4-0.4-4.2,0.9-4.9,2.3
	c-0.8,1.6-0.8,5,0.2,5.8c4,3,1.3,6.8,1.8,10.1c0.1,0.5-1.4,1.3-2.5,2.3c-1.5-7.7-4.1-10.6-8.6-9.9c-4.1,0.6-6.1,3.2-6,7.3
	c0.1,4.8,2.7,6.2,12.1,6.5c-3.4,4.4-6.5,8.5-10.2,13.3c-1.2-1.5-1.9-3.1-3.1-3.9c-1.2-0.9-3.1-1.7-4.3-1.4c-1.3,0.4-2.9,2.3-2.9,3.5
	c-0.1,5,0.3,9.9,0.6,15.2c-0.9,0.7-2.2,1.5-3.3,2.5c-6.2,5.6-4.3,16.7,3.6,18c7.6,1.3,15.7,0.3,22.7,0.3c-1.1-9.5-2.5-18.7-3-27.9
	c-0.2-4.1,0.3-9.2,2.6-12.3c2.3-3.1,7.3-4.4,10.2-6c-1-0.2-3.3-0.3-5.2-1.1c-0.9-0.4-1.1-2.2-1.6-3.4c2.8-0.7,7.4-2.7,8.2-1.7
	c4.3,5.3,6.5,1.9,8.5-1.5c5-8.3,12.5-11.5,21.8-11.5c9.5,0,19,0.3,28.5-0.1c11.8-0.6,20.9,3.9,27.8,13.4c0.1,0.1,0.2,0.3,0.3,0.4
	c2,2.7,3.6,4.2,6.5,0.4c0.9-1.1,4.2-0.8,6.2-0.5c1.1,0.2,2,1.9,2.9,3c-1.4,1-2.8,2-4.1,3.1c-0.2,0.1-0.1,0.5-0.1,1.1
	c7.7,1.5,11.3,6.5,10.7,14.2c-0.8,10.2-1.8,20.4-2.7,31c0.9-0.3,2.9-0.8,4.7-1.5c2.9-1.1,5.3-2.7,8.8-0.9c5.6,2.8,11.8,0.3,14.5-4.9
	c2.8-5.5,1-11.8-4.3-15.3c-2.6-1.7-5.2-3.5-8.2-5.5c5.2-6.9-1.2-13.3-0.8-20.1c0-0.9-1.2-2.3-2.1-2.6c-2.7-1-6.7-0.7-7.5-2
	c-2.8-4-6.5-7.2-6.6-9.6c-0.3-4.5,0.2-7.9-0.9-10.7c-0.5-1.3-3.6-2.5-5.1-2.7l-2.3,0.9c-1.5,0.6-1.7,2.1-3.3,3.1
	c-1.1,0.7-2.5,2.1-3.7,1.6c-1.2-0.5-1.3-0.7-1.4-1.5c-0.2-1.1,1.3-2,2.3-2.7c4.5-3.2,5.1-6.1,2.1-10.7
	C133.1,16.9,132.5,16.2,131.9,15.6z M47.7,6.5c0,3.6-3,6.5-6.6,6.5c-3.7,0-6.6-2.9-6.6-6.5c0-3.6,3-6.5,6.6-6.5
	C44.7,0,47.7,2.9,47.7,6.5z M76.3,11.8c0,2.1-1.7,3.8-3.8,3.8c-2.1,0-3.8-1.7-3.8-3.8S70.3,8,72.5,8C74.6,8,76.3,9.7,76.3,11.8z
	 M149.3,16.5c0,2.3-2,4.2-4.4,4.2c-2.4,0-4.4-1.9-4.4-4.2c0-2.3,2-4.2,4.4-4.2C147.3,12.3,149.3,14.2,149.3,16.5z M163.6,39.4
	c0,2.9-2.5,5.3-5.7,5.3c-3.1,0-5.7-2.4-5.7-5.3s2.5-5.3,5.7-5.3C161.1,34,163.6,36.4,163.6,39.4z"/>
<path style="fill-rule:evenodd;clip-rule:evenodd;fill:#FFFFFF;" d="M50.6,53.5c5.7-10.4,9.3-14.6,20.2-14.5
	c11.6,0.1,22.8,0.2,34.5,0.1c12.2-0.1,14.3,5.7,19.8,13.6C98.1,49.8,77.7,49.7,50.6,53.5z"/>
<path style="fill-rule:evenodd;clip-rule:evenodd;fill:#FFFFFF;" d="M87.7,96.8c-7.3,0-13.3-0.3-20.7-0.4c-2,0-4.7,0.2-5.7-0.9
	c-2.2-2.4-5.1-5.3-5.1-8.5c1-1.6,4.3-2.1,6.5-2.1c17.3-0.1,34.6-0.1,51.9,0.2c2.4,0,6,0.9,6.9,2.6c1.5,2.8-3.4,8.4-6.9,8.8
	c-2.8,0.3-5.6,0.3-8.5,0.4c-5.7,0.1-11.3,0-17,0C89,96.6,87.7,96.9,87.7,96.8z"/>
<path style="fill-rule:evenodd;clip-rule:evenodd;fill:#FFFFFF;" d="M142.9,68.1c-0.3,6.1-3.4,8.7-9.7,8.1c-1.3-0.1-3.5-2.1-3.6-3.3
	c-0.2-6.5,3.7-11.5,8.2-11C141.7,62.2,143.4,64.6,142.9,68.1z"/>
<path style="fill-rule:evenodd;clip-rule:evenodd;fill:#FFFFFF;" d="M34.4,66.8c0.2-3.1,2-5.1,5.6-5.1c4.4,0,7.7,4.8,7.8,10.9
	c0,3-1.5,3.6-4.1,3.5C37.1,75.7,34.3,73.2,34.4,66.8z"/>
<path style="fill-rule:evenodd;clip-rule:evenodd;fill:#FFFFFF;" d="M52.8,94.9c-8.8,0.8-12.9-2.3-13.7-10.1
	C47.4,82.7,50,84.6,52.8,94.9z"/>
<path style="fill-rule:evenodd;clip-rule:evenodd;fill:#FFFFFF;" d="M138.3,85.4c-0.1,6.9-6,11.5-13.5,9.5
	C126.6,85.5,129.2,83.6,138.3,85.4z"/>
<g>
	<path style="fill:#FFBB00;" d="M38.6,127.4c0.2,0,0.3,0.1,0.5,0.2l1.4,1.5c-0.8,0.9-1.7,1.6-2.8,2.1c-1.1,0.5-2.4,0.7-3.9,0.7
		c-1.4,0-2.6-0.2-3.7-0.7c-1.1-0.5-2-1.1-2.8-2c-0.8-0.8-1.4-1.8-1.8-3s-0.6-2.4-0.6-3.8c0-1.4,0.2-2.7,0.7-3.8
		c0.5-1.2,1.1-2.2,1.9-3c0.8-0.8,1.8-1.5,3-2s2.4-0.7,3.9-0.7c1.4,0,2.6,0.2,3.6,0.7c1,0.4,1.9,1,2.6,1.7l-1.2,1.6
		c-0.1,0.1-0.2,0.2-0.3,0.3c-0.1,0.1-0.3,0.1-0.4,0.1c-0.2,0-0.4-0.1-0.6-0.2c-0.2-0.2-0.5-0.3-0.8-0.5c-0.3-0.2-0.7-0.3-1.2-0.5
		S35,116,34.3,116c-0.9,0-1.7,0.2-2.4,0.5c-0.7,0.3-1.4,0.7-1.9,1.3c-0.5,0.6-0.9,1.2-1.2,2.1c-0.3,0.8-0.4,1.7-0.4,2.7
		c0,1,0.1,2,0.4,2.8c0.3,0.8,0.7,1.5,1.2,2c0.5,0.6,1.1,1,1.8,1.3c0.7,0.3,1.4,0.4,2.2,0.4c0.5,0,0.9,0,1.3-0.1
		c0.4-0.1,0.7-0.1,1-0.2c0.3-0.1,0.6-0.3,0.9-0.4c0.3-0.2,0.6-0.4,0.9-0.6c0.1-0.1,0.2-0.1,0.3-0.2
		C38.4,127.4,38.5,127.4,38.6,127.4z"/>
	<path style="fill:#FFBB00;" d="M59.3,131.8h-2.7c-0.3,0-0.5-0.1-0.7-0.2s-0.3-0.3-0.4-0.6l-1.4-3.8h-7.7L45,131
		c-0.1,0.2-0.2,0.4-0.4,0.5c-0.2,0.2-0.4,0.2-0.7,0.2h-2.7l7.3-18.5H52L59.3,131.8z M47.3,124.8h5.9l-2.3-6.2
		c-0.1-0.3-0.2-0.6-0.3-1c-0.1-0.4-0.2-0.8-0.4-1.2c-0.1,0.4-0.2,0.8-0.4,1.2s-0.2,0.7-0.3,1L47.3,124.8z"/>
	<path style="fill:#FFBB00;" d="M64.7,124.6v7.2h-3.4v-18.5h5.6c1.3,0,2.3,0.1,3.2,0.4c0.9,0.3,1.6,0.6,2.2,1.1c0.6,0.5,1,1,1.3,1.7
		s0.4,1.4,0.4,2.2c0,0.6-0.1,1.2-0.3,1.8c-0.2,0.6-0.4,1.1-0.8,1.5c-0.3,0.5-0.8,0.8-1.3,1.2c-0.5,0.3-1.1,0.6-1.7,0.8
		c0.4,0.2,0.8,0.6,1.1,1.1l4.6,6.8h-3.1c-0.3,0-0.6-0.1-0.8-0.2c-0.2-0.1-0.4-0.3-0.5-0.5l-3.9-5.9c-0.1-0.2-0.3-0.4-0.5-0.5
		c-0.2-0.1-0.4-0.1-0.8-0.1H64.7z M64.7,122.1h2.1c0.6,0,1.2-0.1,1.7-0.2s0.9-0.4,1.2-0.7c0.3-0.3,0.5-0.6,0.7-1
		c0.2-0.4,0.2-0.8,0.2-1.3c0-0.9-0.3-1.7-0.9-2.2c-0.6-0.5-1.6-0.8-2.8-0.8h-2.2V122.1z"/>
	<path style="fill:#FFBB00;" d="M76.2,113.3h2.9c0.3,0,0.5,0.1,0.7,0.2c0.2,0.1,0.3,0.3,0.4,0.6l3.1,11.1c0.1,0.3,0.1,0.6,0.2,0.9
		c0.1,0.3,0.1,0.7,0.2,1c0.1-0.4,0.1-0.7,0.2-1c0.1-0.3,0.2-0.6,0.3-0.9l3.6-11.1c0.1-0.2,0.2-0.4,0.4-0.5c0.2-0.2,0.4-0.2,0.7-0.2
		h1c0.3,0,0.5,0.1,0.7,0.2s0.3,0.3,0.4,0.6l3.6,11.1c0.2,0.5,0.3,1.2,0.5,1.8c0.1-0.3,0.1-0.7,0.2-1c0.1-0.3,0.1-0.6,0.2-0.9
		l3.1-11.1c0.1-0.2,0.2-0.4,0.4-0.5c0.2-0.2,0.5-0.2,0.7-0.2h2.7L97,131.8h-3.1l-4-12.6c-0.1-0.2-0.1-0.3-0.2-0.5
		c-0.1-0.2-0.1-0.4-0.2-0.6c-0.1,0.2-0.1,0.4-0.2,0.6c-0.1,0.2-0.1,0.4-0.2,0.5l-4.1,12.6H82L76.2,113.3z"/>
	<path style="fill:#FFBB00;" d="M119.5,131.8h-2.7c-0.3,0-0.5-0.1-0.7-0.2s-0.3-0.3-0.4-0.6l-1.4-3.8h-7.7l-1.4,3.8
		c-0.1,0.2-0.2,0.4-0.4,0.5c-0.2,0.2-0.4,0.2-0.7,0.2h-2.7l7.3-18.5h3.5L119.5,131.8z M107.5,124.8h5.9l-2.3-6.2
		c-0.1-0.3-0.2-0.6-0.3-1c-0.1-0.4-0.2-0.8-0.4-1.2c-0.1,0.4-0.2,0.8-0.4,1.2s-0.2,0.7-0.3,1L107.5,124.8z"/>
	<path style="fill:#FFBB00;" d="M131.3,116.7c-0.1,0.2-0.2,0.3-0.3,0.4s-0.3,0.1-0.4,0.1s-0.4-0.1-0.6-0.2c-0.2-0.1-0.5-0.3-0.8-0.4
		s-0.6-0.3-1-0.4c-0.4-0.1-0.8-0.2-1.4-0.2c-0.5,0-0.9,0.1-1.2,0.2c-0.4,0.1-0.7,0.3-0.9,0.5s-0.4,0.5-0.5,0.7
		c-0.1,0.3-0.2,0.6-0.2,0.9c0,0.4,0.1,0.8,0.4,1.1c0.2,0.3,0.6,0.5,1,0.7c0.4,0.2,0.9,0.4,1.4,0.5c0.5,0.2,1,0.3,1.6,0.5
		c0.5,0.2,1.1,0.4,1.6,0.6s1,0.5,1.4,0.9c0.4,0.4,0.7,0.8,1,1.4s0.4,1.2,0.4,2c0,0.8-0.1,1.6-0.4,2.3c-0.3,0.7-0.7,1.4-1.3,1.9
		c-0.6,0.5-1.2,1-2,1.3c-0.8,0.3-1.7,0.5-2.7,0.5c-0.6,0-1.2-0.1-1.7-0.2s-1.1-0.3-1.6-0.5c-0.5-0.2-1-0.5-1.5-0.8
		c-0.5-0.3-0.9-0.6-1.2-1l1-1.7c0.1-0.1,0.2-0.2,0.3-0.3c0.1-0.1,0.3-0.1,0.4-0.1c0.2,0,0.4,0.1,0.7,0.3c0.2,0.2,0.5,0.4,0.9,0.6
		c0.3,0.2,0.7,0.4,1.2,0.6s1,0.3,1.6,0.3c1,0,1.7-0.2,2.3-0.7s0.8-1.1,0.8-2c0-0.5-0.1-0.9-0.4-1.2c-0.2-0.3-0.6-0.6-1-0.8
		c-0.4-0.2-0.9-0.4-1.4-0.5c-0.5-0.1-1-0.3-1.6-0.5c-0.5-0.2-1-0.4-1.6-0.6c-0.5-0.2-1-0.5-1.4-0.9c-0.4-0.4-0.7-0.9-1-1.4
		c-0.2-0.6-0.4-1.3-0.4-2.1c0-0.7,0.1-1.3,0.4-2s0.7-1.2,1.2-1.7c0.5-0.5,1.1-0.9,1.9-1.2c0.8-0.3,1.6-0.4,2.6-0.4
		c1.1,0,2.1,0.2,3,0.5c0.9,0.3,1.7,0.8,2.4,1.4L131.3,116.7z"/>
	<path style="fill:#FFBB00;" d="M150.7,131.8h-3.5v-8.1h-8.7v8.1h-3.5v-18.5h3.5v8h8.7v-8h3.5V131.8z"/>
</g>
<ellipse style="fill-rule:evenodd;clip-rule:evenodd;fill:#FFFFFF;" cx="21.2" cy="44.9" rx="3.2" ry="3.2"/>
<ellipse style="fill-rule:evenodd;clip-rule:evenodd;fill:#FFFFFF;" cx="12" cy="86.8" rx="2.8" ry="2.7"/>
<ellipse style="fill-rule:evenodd;clip-rule:evenodd;fill:#FFFFFF;" cx="56.6" cy="21.4" rx="2.5" ry="2.6"/>
<circle style="fill-rule:evenodd;clip-rule:evenodd;fill:#FFFFFF;" cx="76.2" cy="26.7" r="1.9"/>
<ellipse style="fill-rule:evenodd;clip-rule:evenodd;fill:#FFFFFF;" cx="129.7" cy="20.6" rx="4.6" ry="4.2"/>
<ellipse style="fill-rule:evenodd;clip-rule:evenodd;fill:#FFFFFF;" cx="110.9" cy="27.2" rx="1.6" ry="1.4"/>
<ellipse style="fill-rule:evenodd;clip-rule:evenodd;fill:#FFFFFF;" cx="156.3" cy="57.1" rx="2.3" ry="2.6"/>
<ellipse style="fill-rule:evenodd;clip-rule:evenodd;fill:#FFFFFF;" cx="163.1" cy="84.1" rx="4.5" ry="4.2"/>
</svg>
